<?xml version="1.0" encoding="UTF-8" standalone="no"?>
<svg width="20px" height="21px" viewBox="0 0 20 21" version="1.1" xmlns="http://www.w3.org/2000/svg" xmlns:xlink="http://www.w3.org/1999/xlink" xmlns:sketch="http://www.bohemiancoding.com/sketch/ns">
    <!-- Generator: Sketch 3.4.4 (17249) - http://www.bohemiancoding.com/sketch -->
    <title>cog</title>
    <desc>Created with Sketch.</desc>
    <defs></defs>
    <g id="Page-1" stroke="none" stroke-width="1" fill="none" fill-rule="evenodd" sketch:type="MSPage">
        <g id="Dashboard" sketch:type="MSArtboardGroup" transform="translate(-135.000000, -43.000000)" fill="#000000">
            <path d="M153.637706,55.4491208 L152.146003,54.5876165 C152.229477,54.1358364 152.277905,53.6713122 152.277905,53.1940439 C152.277905,52.6963849 152.225017,52.2114701 152.133896,51.741211 L153.563152,50.8899019 C154.167862,50.530517 154.374955,49.7327333 154.026402,49.1089073 L152.76282,46.8500071 C152.41363,46.226181 151.640061,46.0127166 151.035988,46.3721015 L149.482476,47.2973267 C148.80385,46.7397702 148.030918,46.2924506 147.185981,45.9929631 L147.185981,44.2744148 C147.185981,43.5709378 146.615043,43 145.911566,43 L143.362737,43 C142.65926,43 142.088322,43.5709378 142.088322,44.2744148 L142.088322,45.9929631 C141.197506,46.309018 140.383792,46.7875607 139.679041,47.3890845 L138.186064,46.5269429 C137.576893,46.1745672 136.796952,46.3835713 136.445213,46.9933787 L135.170798,49.2000279 C134.81906,49.8098354 135.028064,50.5897773 135.637234,50.9408785 L137.127662,51.8017457 C137.044188,52.2535258 136.99576,52.7174128 136.99576,53.1934067 C136.99576,53.6917029 137.048648,54.1772549 137.140406,54.6487884 L135.711787,55.5000974 C135.107078,55.8594824 134.899985,56.6572661 135.248538,57.2817293 L136.51212,59.5399923 C136.861309,60.1638184 137.634242,60.3772828 138.238952,60.0178979 L139.793101,59.0920355 C140.471089,59.6489548 141.243385,60.0956372 142.087685,60.3951246 L142.087685,62.1155846 C142.087685,62.8190616 142.658622,63.3899994 143.362099,63.3899994 L145.910929,63.3899994 C146.614406,63.3899994 147.185344,62.8190616 147.185344,62.1155846 L147.185344,60.3951246 C148.07616,60.0790698 148.889236,59.6011642 149.593988,58.9996404 L151.088239,59.8624193 C151.697409,60.2147949 152.477351,60.0057909 152.828452,59.3966207 L154.102867,57.1893342 C154.45588,56.5808012 154.246876,55.8008593 153.637706,55.4491208 L153.637706,55.4491208 Z M152.681895,57.1045857 L152.044687,58.2082289 C151.868818,58.5134512 151.478847,58.6179532 151.174262,58.4414468 L149.4041,57.4193661 C148.504363,58.4325259 147.290483,59.1595795 145.911566,59.4399508 L145.911566,61.4790144 C145.911566,61.8313901 145.626734,62.116859 145.274359,62.116859 L143.999944,62.116859 C143.648205,62.116859 143.362737,61.8313901 143.362737,61.4790144 L143.362737,59.4399508 C142.020141,59.167226 140.834298,58.4707583 139.942207,57.499017 L138.15484,58.5637906 C137.852167,58.7434831 137.466019,58.6364322 137.291424,58.3248378 L136.659952,57.1957063 C136.485357,56.8841119 136.589222,56.4852201 136.891258,56.3061648 L138.61363,55.2802609 C138.387421,54.6271233 138.260617,53.9261952 138.260617,53.1959555 C138.260617,52.4905669 138.380412,51.8132155 138.592602,51.1785569 L136.8269,50.1590251 C136.521678,49.9831558 136.417176,49.5925477 136.593682,49.2885998 L137.23089,48.1849566 C137.406759,47.8797342 137.79673,47.7758694 138.101315,47.9517387 L139.869566,48.9731821 C140.769302,47.9600224 141.983182,47.2316943 143.362737,46.9519603 L143.362737,44.914171 C143.362737,44.5617953 143.648205,44.2769636 143.999944,44.2769636 L145.274359,44.2769636 C145.626734,44.2769636 145.911566,44.5617953 145.911566,44.914171 L145.911566,46.951323 C147.254799,47.2240478 148.441279,47.9217899 149.334007,48.8941684 L151.120099,47.830032 C151.422773,47.6503396 151.808921,47.7573904 151.982878,48.0683476 L152.614988,49.1974791 C152.788945,49.5090735 152.685718,49.9079654 152.383682,50.0876578 L150.661947,51.1129245 C150.888156,51.7660621 151.01496,52.4657158 151.01496,53.1959555 C151.01496,53.9026185 150.895165,54.5806072 150.682338,55.2159029 L152.448677,56.236072 C152.753262,56.4100296 152.857764,56.8000005 152.681895,57.1045857 L152.681895,57.1045857 Z M144.637151,50.0086441 C142.881645,50.0086441 141.458761,51.4353515 141.458761,53.1946811 C141.458761,54.9540107 142.881645,56.3813553 144.637151,56.3813553 C146.392658,56.3813553 147.816179,54.9540107 147.816179,53.1946811 C147.816179,51.4353515 146.39202,50.0086441 144.637151,50.0086441 L144.637151,50.0086441 Z M144.637151,55.1063033 C143.579387,55.1063033 142.722343,54.2505337 142.722343,53.1946811 C142.722343,52.1388284 143.579387,51.2824217 144.637151,51.2824217 C145.694916,51.2824217 146.552597,52.1388284 146.552597,53.1946811 C146.552597,54.2505337 145.694916,55.1063033 144.637151,55.1063033 L144.637151,55.1063033 Z" id="cog" sketch:type="MSShapeGroup"></path>
        </g>
    </g>
</svg>