<?xml version="1.0" encoding="UTF-8" standalone="no"?>
<svg width="24px" height="24px" viewBox="0 0 24 24" version="1.1" xmlns="http://www.w3.org/2000/svg" xmlns:xlink="http://www.w3.org/1999/xlink" xmlns:sketch="http://www.bohemiancoding.com/sketch/ns">
    <!-- Generator: Sketch 3.4.4 (17249) - http://www.bohemiancoding.com/sketch -->
    <title>list</title>
    <desc>Created with Sketch.</desc>
    <defs></defs>
    <g id="Page-1" stroke="none" stroke-width="1" fill="none" fill-rule="evenodd" sketch:type="MSPage">
        <g id="Dashboard" sketch:type="MSArtboardGroup" transform="translate(-43.000000, -39.000000)" fill="#FFFFFF">
            <path d="M43,41.9910904 C43,40.3391568 44.3417706,39 45.9910904,39 L64.0089096,39 C65.6608432,39 67,40.3417706 67,41.9910904 L67,60.0089096 C67,61.6608432 65.6582294,63 64.0089096,63 L45.9910904,63 C44.3391568,63 43,61.6582294 43,60.0089096 L43,41.9910904 Z M45,42.5032506 C45,41.6730282 45.6654358,41 46.5032506,41 L63.4967494,41 C64.3269718,41 65,41.6654358 65,42.5032506 L65,59.4967494 C65,60.3269718 64.3345642,61 63.4967494,61 L46.5032506,61 C45.6730282,61 45,60.3345642 45,59.4967494 L45,42.5032506 Z M49,46 L61,46 L61,48 L49,48 L49,46 Z M49,50 L61,50 L61,52 L49,52 L49,50 Z M49,54 L56.3051758,54 L61,54 L61,56 L49,56 L49,54 Z" id="list" sketch:type="MSShapeGroup"></path>
        </g>
    </g>
</svg>