<?xml version="1.0" encoding="UTF-8" standalone="no"?>
<svg width="18px" height="17px" viewBox="0 0 18 17" version="1.1" xmlns="http://www.w3.org/2000/svg" xmlns:xlink="http://www.w3.org/1999/xlink" xmlns:sketch="http://www.bohemiancoding.com/sketch/ns">
    <!-- Generator: Sketch 3.4.4 (17249) - http://www.bohemiancoding.com/sketch -->
    <title>move</title>
    <desc>Created with Sketch.</desc>
    <defs></defs>
    <g id="Page-1" stroke="none" stroke-width="1" fill="none" fill-rule="evenodd" sketch:type="MSPage">
        <g id="Dashboard" sketch:type="MSArtboardGroup" transform="translate(-88.000000, -43.000000)" fill="#000000">
            <path d="M88.9,44.8 L105.1,44.8 C105.5977,44.8 106,44.3968 106,43.9 C106,43.4023 105.5977,43 105.1,43 L88.9,43 C88.4041,43 88,43.4023 88,43.9 C88,44.3968 88.4041,44.8 88.9,44.8 L88.9,44.8 Z M105.1,50.2 L88.9,50.2 C88.4041,50.2 88,50.6023 88,51.1009 C88,51.5968 88.4041,52 88.9,52 L105.1,52 C105.5977,52 106,51.5968 106,51.1009 C106,50.6023 105.5977,50.2 105.1,50.2 L105.1,50.2 Z M105.1,57.4 L88.9,57.4 C88.4041,57.4 88,57.8023 88,58.3 C88,58.7977 88.4041,59.2 88.9,59.2 L105.1,59.2 C105.5977,59.2 106,58.7977 106,58.3 C106,57.8023 105.5977,57.4 105.1,57.4 L105.1,57.4 Z" id="move" sketch:type="MSShapeGroup"></path>
        </g>
    </g>
</svg>